<?xml version="1.0" encoding="UTF-8" standalone="no"?>
<!DOCTYPE svg PUBLIC "-//W3C//DTD SVG 1.1//EN" "http://www.w3.org/Graphics/SVG/1.1/DTD/svg11.dtd">
<svg width="100%" height="100%" viewBox="0 0 403 69" version="1.1" xmlns="http://www.w3.org/2000/svg" xmlns:xlink="http://www.w3.org/1999/xlink" xml:space="preserve" xmlns:serif="http://www.serif.com/" style="fill-rule:evenodd;clip-rule:evenodd;stroke-linejoin:round;stroke-miterlimit:2;">
    <g transform="matrix(1,0,0,1,-2188.42,-619.341)">
        <g transform="matrix(0.85058,0,0,0.85058,2146.63,582.607)">
            <path d="M82.059,100.792C78.893,108.605 75.73,116.418 72.566,124.232L49.126,124.232C52.289,116.418 55.455,108.605 58.618,100.792L82.059,100.792ZM91.551,77.352L68.111,77.352C71.276,69.538 74.44,61.725 77.605,53.911L101.045,53.911C97.88,61.725 94.716,69.538 91.551,77.352ZM161.871,77.352C165.037,69.538 168.2,61.725 171.366,53.911L194.806,53.911C191.641,61.725 188.477,69.538 185.312,77.352L161.871,77.352ZM152.379,100.792L175.819,100.792C172.654,108.605 169.49,116.418 166.325,124.232L142.885,124.232C146.05,116.418 149.214,108.605 152.379,100.792ZM82.059,100.792C85.222,92.978 88.388,85.165 91.551,77.352L114.991,77.352C111.828,85.165 108.662,92.978 105.499,100.792L82.059,100.792ZM114.991,77.352C118.157,69.538 121.32,61.725 124.486,53.911L147.926,53.911C144.76,61.725 141.597,69.538 138.431,77.352L114.991,77.352ZM138.431,77.352L161.871,77.352C158.708,85.165 155.542,92.978 152.379,100.792L128.939,100.792C132.102,92.978 135.268,85.165 138.431,77.352ZM128.939,100.792C125.773,108.605 122.61,116.418 119.444,124.232L96.004,124.232C99.17,116.418 102.333,108.605 105.499,100.792L128.939,100.792ZM234.643,53.907C238.215,53.907 241.269,54.441 243.803,55.507C246.335,56.575 248.243,58.147 249.523,60.227C250.803,62.307 251.415,64.855 251.363,67.867C251.309,70.881 250.535,74.307 249.043,78.147C248.349,80.015 247.843,81.361 247.523,82.187C247.203,83.015 246.935,83.707 246.723,84.267C246.509,84.827 246.269,85.455 246.003,86.147C245.735,86.841 245.283,87.961 244.643,89.507C243.095,93.135 241.589,96.027 240.123,98.187C238.655,100.347 237.055,102.015 235.323,103.187C233.589,104.361 231.655,105.121 229.523,105.467C227.389,105.815 224.883,105.987 222.003,105.987L210.963,105.987L203.443,124.227L186.323,124.227L214.803,53.907L234.643,53.907ZM232.323,71.907C232.749,70.947 232.763,70.135 232.363,69.467C231.963,68.801 231.283,68.467 230.323,68.467C228.989,68.467 228.029,68.721 227.443,69.227C226.855,69.735 226.295,70.655 225.763,71.987L219.523,88.227C218.723,90.255 218.483,91.561 218.803,92.147C219.123,92.735 219.789,93.027 220.803,93.027C221.975,93.027 222.949,92.787 223.723,92.307C224.495,91.827 225.149,90.921 225.683,89.587L232.323,71.907ZM263.523,53.907L280.643,53.907L259.443,105.987L242.323,105.987L263.523,53.907ZM284.963,43.187L282.243,49.907L265.123,49.907L266.163,47.187C266.695,45.961 267.495,44.987 268.563,44.267C269.629,43.547 270.775,43.187 272.003,43.187L284.963,43.187ZM305.043,53.907C308.615,53.907 311.669,54.441 314.203,55.507C316.735,56.575 318.643,58.147 319.923,60.227C321.203,62.307 321.815,64.855 321.763,67.867C321.709,70.881 320.935,74.307 319.443,78.147C318.749,80.015 318.243,81.361 317.923,82.187C317.603,83.015 317.335,83.707 317.123,84.267C316.909,84.827 316.669,85.455 316.403,86.147C316.135,86.841 315.683,87.961 315.043,89.507C313.495,93.135 311.989,96.027 310.523,98.187C309.055,100.347 307.455,102.015 305.723,103.187C303.989,104.361 302.055,105.121 299.923,105.467C297.789,105.815 295.283,105.987 292.403,105.987L281.363,105.987L273.843,124.227L256.723,124.227L285.203,53.907L305.043,53.907ZM302.723,71.907C303.149,70.947 303.163,70.135 302.763,69.467C302.363,68.801 301.683,68.467 300.723,68.467C299.389,68.467 298.429,68.721 297.843,69.227C297.255,69.735 296.695,70.655 296.163,71.987L289.923,88.227C289.123,90.255 288.883,91.561 289.203,92.147C289.523,92.735 290.189,93.027 291.203,93.027C292.375,93.027 293.349,92.787 294.123,92.307C294.895,91.827 295.549,90.921 296.083,89.587L302.723,71.907ZM351.203,52.947C355.043,52.947 358.363,53.467 361.163,54.507C363.963,55.547 366.123,57.015 367.643,58.907C369.163,60.801 370.003,63.095 370.163,65.787C370.323,68.481 369.735,71.481 368.403,74.787L354.243,74.787C353.229,74.787 352.375,74.575 351.683,74.147C350.989,73.721 350.775,72.947 351.043,71.827C351.149,71.615 351.269,71.281 351.403,70.827C351.535,70.375 351.629,70.095 351.683,69.987C352.003,68.815 352.109,67.827 352.003,67.027C351.895,66.227 351.309,65.827 350.243,65.827C348.909,65.827 347.923,66.121 347.283,66.707C346.643,67.295 346.189,67.907 345.923,68.547C345.229,70.041 345.269,71.321 346.043,72.387C346.815,73.455 347.949,74.467 349.443,75.427C350.935,76.387 352.575,77.361 354.363,78.347C356.149,79.335 357.709,80.495 359.043,81.827C360.375,83.161 361.295,84.747 361.803,86.587C362.309,88.427 362.003,90.655 360.883,93.267C359.815,95.827 358.603,97.975 357.243,99.707C355.883,101.441 354.269,102.841 352.403,103.907C350.535,104.975 348.363,105.735 345.883,106.187C343.403,106.641 340.483,106.867 337.123,106.867C333.283,106.867 329.963,106.361 327.163,105.347C324.363,104.335 322.203,102.881 320.683,100.987C319.163,99.095 318.309,96.801 318.123,94.107C317.935,91.415 318.535,88.387 319.923,85.027L334.003,85.027C335.175,85.027 336.055,85.295 336.643,85.827C337.229,86.361 337.283,87.481 336.803,89.187L336.563,90.147C336.295,91.215 336.229,92.121 336.363,92.867C336.495,93.615 337.069,93.987 338.083,93.987C340.055,93.987 341.389,93.161 342.083,91.507C342.723,90.067 342.669,88.815 341.923,87.747C341.175,86.681 340.069,85.667 338.603,84.707C337.135,83.747 335.535,82.761 333.803,81.747C332.069,80.735 330.549,79.547 329.243,78.187C327.935,76.827 327.029,75.215 326.523,73.347C326.015,71.481 326.323,69.215 327.443,66.547C328.455,63.987 329.643,61.841 331.003,60.107C332.363,58.375 333.989,56.975 335.883,55.907C337.775,54.841 339.963,54.081 342.443,53.627C344.923,53.175 347.843,52.947 351.203,52.947ZM410.163,60.467L404.643,74.067L390.403,74.067L377.443,105.987L360.243,105.987L384.243,47.187C384.669,46.121 385.455,45.187 386.603,44.387C387.749,43.587 388.935,43.187 390.163,43.187L403.043,43.187L395.923,60.467L410.163,60.467ZM437.763,52.947C441.335,52.947 444.375,53.481 446.883,54.547C449.389,55.615 451.283,57.187 452.563,59.267C453.843,61.347 454.469,63.895 454.443,66.907C454.415,69.921 453.655,73.347 452.163,77.187C451.415,79.055 450.843,80.507 450.443,81.547C450.043,82.587 449.683,83.507 449.363,84.307C449.043,85.107 448.709,85.935 448.363,86.787C448.015,87.641 447.523,88.841 446.883,90.387C445.335,94.015 443.829,96.921 442.363,99.107C440.895,101.295 439.295,102.961 437.563,104.107C435.829,105.255 433.883,106.001 431.723,106.347C429.563,106.695 427.069,106.867 424.243,106.867L416.243,106.867C413.949,106.867 411.749,106.535 409.643,105.867C407.535,105.201 405.843,104.067 404.563,102.467C403.283,100.867 402.563,98.747 402.403,96.107C402.243,93.467 402.963,90.175 404.563,86.227C405.043,85.001 405.575,83.587 406.163,81.987C406.695,80.601 407.335,78.921 408.083,76.947C408.829,74.975 409.735,72.681 410.803,70.067C412.883,64.895 415.883,60.747 419.803,57.627C423.723,54.507 428.509,52.947 434.163,52.947L437.763,52.947ZM435.443,70.947C435.869,69.987 435.869,69.175 435.443,68.507C435.015,67.841 434.349,67.507 433.443,67.507C432.109,67.507 431.149,67.761 430.563,68.267C429.975,68.775 429.389,69.721 428.803,71.107L421.763,89.187C420.963,91.215 420.723,92.521 421.043,93.107C421.363,93.695 422.029,93.987 423.043,93.987C424.215,93.987 425.189,93.735 425.963,93.227C426.735,92.721 427.389,91.801 427.923,90.467L435.443,70.947ZM485.923,53.907C489.495,53.907 492.549,54.441 495.083,55.507C497.615,56.575 499.523,58.147 500.803,60.227C502.083,62.307 502.695,64.855 502.643,67.867C502.589,70.881 501.815,74.307 500.323,78.147C499.629,80.015 499.123,81.361 498.803,82.187C498.483,83.015 498.215,83.707 498.003,84.267C497.789,84.827 497.549,85.455 497.283,86.147C497.015,86.841 496.563,87.961 495.923,89.507C494.375,93.135 492.869,96.027 491.403,98.187C489.935,100.347 488.335,102.015 486.603,103.187C484.869,104.361 482.935,105.121 480.803,105.467C478.669,105.815 476.163,105.987 473.283,105.987L462.243,105.987L454.723,124.227L437.603,124.227L466.083,53.907L485.923,53.907ZM483.603,71.907C484.029,70.947 484.043,70.135 483.643,69.467C483.243,68.801 482.563,68.467 481.603,68.467C480.269,68.467 479.309,68.721 478.723,69.227C478.135,69.735 477.575,70.655 477.043,71.987L470.803,88.227C470.003,90.255 469.763,91.561 470.083,92.147C470.403,92.735 471.069,93.027 472.083,93.027C473.255,93.027 474.229,92.787 475.003,92.307C475.775,91.827 476.429,90.921 476.963,89.587L483.603,71.907ZM512.963,95.907L507.043,110.707L502.003,110.707C501.415,110.707 500.989,110.507 500.723,110.107C500.455,109.707 500.429,109.241 500.643,108.707L500.883,107.987C501.203,107.241 501.095,106.721 500.563,106.427C500.029,106.135 499.175,105.987 498.003,105.987L498.243,105.987C497.603,105.987 497.015,105.855 496.483,105.587C495.949,105.321 495.869,104.707 496.243,103.747L499.283,95.907L512.963,95.907ZM521.923,73.747L517.923,83.827L506.963,83.827C506.375,83.827 505.855,83.655 505.403,83.307C504.949,82.961 504.909,82.361 505.283,81.507L508.243,73.747L521.923,73.747Z" style="fill:white;"/>
        </g>
    </g>
</svg>
