<?xml version="1.0" encoding="UTF-8" standalone="no"?>
<!DOCTYPE svg PUBLIC "-//W3C//DTD SVG 1.1//EN" "http://www.w3.org/Graphics/SVG/1.1/DTD/svg11.dtd">
<svg width="100%" height="100%" viewBox="0 0 550 591" version="1.1" xmlns="http://www.w3.org/2000/svg" xmlns:xlink="http://www.w3.org/1999/xlink" xml:space="preserve" xmlns:serif="http://www.serif.com/" style="fill-rule:evenodd;clip-rule:evenodd;stroke-linejoin:round;stroke-miterlimit:2;">
    <g transform="matrix(1,0,0,1,-9206.47,-1215.09)">
        <g transform="matrix(1,0,0,0.939461,8694.08,0)">
            <g transform="matrix(1,0,0,1.06444,-8694.08,0)">
                <path d="M9206.47,1276.36C9206.47,1246.25 9227.77,1221.08 9256.11,1215.09L9705.91,1215.09C9734.25,1221.08 9755.55,1246.25 9755.55,1276.36L9755.55,1805.97L9206.47,1805.97L9206.47,1276.36Z" style="fill:url(#_Linear1);"/>
            </g>
        </g>
        <g transform="matrix(1,0,0,0.939461,8694.08,0)">
            <g transform="matrix(1,0,0,1.06444,-9167.56,218.409)">
                <path d="M9954.49,1125.34C10004.2,1125.34 10044.5,1165.67 10044.5,1215.34C10044.5,1265.02 10004.2,1305.35 9954.49,1305.35C9904.81,1305.35 9864.48,1265.02 9864.48,1215.34C9864.48,1165.67 9904.81,1125.34 9954.49,1125.34ZM9954.49,1131.34C9908.12,1131.34 9870.48,1168.98 9870.48,1215.34C9870.48,1261.71 9908.12,1299.35 9954.49,1299.35C10000.8,1299.35 10038.5,1261.71 10038.5,1215.34C10038.5,1168.98 10000.8,1131.34 9954.49,1131.34Z" style="fill:url(#_Linear2);"/>
            </g>
        </g>
        <g transform="matrix(1,0,0,0.939461,8694.08,0)">
            <g transform="matrix(0.945301,0,0,1.00622,-3652.63,1482.42)">
                <g transform="matrix(126.944,0,0,126.944,4732.58,73.8916)">
                </g>
                <text x="4656.41px" y="73.892px" style="font-family:'PTMono-Bold', 'PT Mono', monospace;font-weight:700;font-size:126.944px;fill:rgb(154,154,216);">2</text>
            </g>
        </g>
    </g>
    <defs>
        <linearGradient id="_Linear1" x1="0" y1="0" x2="1" y2="0" gradientUnits="userSpaceOnUse" gradientTransform="matrix(3.61809e-14,-590.879,590.879,3.61809e-14,9452.41,1805.97)"><stop offset="0" style="stop-color:rgb(153,153,216);stop-opacity:1"/><stop offset="1" style="stop-color:rgb(222,223,251);stop-opacity:1"/></linearGradient>
        <linearGradient id="_Linear2" x1="0" y1="0" x2="1" y2="0" gradientUnits="userSpaceOnUse" gradientTransform="matrix(1.10222e-14,180.007,-262.881,1.60968e-14,9954.49,1125.34)"><stop offset="0" style="stop-color:rgb(153,153,216);stop-opacity:1"/><stop offset="1" style="stop-color:rgb(222,223,251);stop-opacity:1"/></linearGradient>
    </defs>
</svg>
